<?xml version="1.0" standalone="no"?>
<!DOCTYPE svg PUBLIC "-//W3C//DTD SVG 20010904//EN"
 "http://www.w3.org/TR/2001/REC-SVG-20010904/DTD/svg10.dtd">
<svg version="1.0" xmlns="http://www.w3.org/2000/svg"
 width="700.000000pt" height="700.000000pt" viewBox="0 0 700.000000 700.000000"
 preserveAspectRatio="xMidYMid meet">
<metadata>
Created by potrace 1.11, written by Peter Selinger 2001-2013
</metadata>
<g transform="translate(0.000000,700.000000) scale(0.100000,-0.100000)"
fill="#000000" stroke="none">
<path d="M2573 6218 c-688 -431 -1312 -821 -1387 -867 -130 -80 -135 -85 -123
-105 8 -12 560 -894 1227 -1961 667 -1067 1218 -1946 1225 -1953 9 -10 267
147 1276 778 695 436 1268 792 1273 793 11 2 398 -612 393 -626 -4 -13 -2956
-1862 -3027 -1896 -48 -23 -67 -26 -155 -26 -87 0 -107 3 -155 26 -162 76
-253 269 -205 435 31 108 82 173 188 239 30 19 45 35 42 44 -3 8 -558 897
-1233 1976 l-1227 1962 -45 -30 c-71 -48 -174 -158 -218 -233 -67 -114 -95
-209 -100 -350 -5 -145 16 -246 76 -364 21 -41 531 -862 1133 -1825 603 -962
1121 -1791 1152 -1842 75 -120 179 -219 291 -273 109 -53 180 -70 301 -70 112
0 188 16 280 59 100 46 3186 1980 3227 2021 47 48 56 82 36 136 -8 23 -123
214 -256 426 -242 385 -242 386 -227 414 19 38 19 80 -3 125 -28 60 -2315
3709 -2344 3740 -24 27 -32 29 -95 29 l-69 0 -1251 -782z"/>
</g>
</svg>
