<?xml version="1.0" encoding="UTF-8" standalone="no"?>

<svg
   xmlns:dc="http://purl.org/dc/elements/1.1/"
   xmlns:cc="http://creativecommons.org/ns#"
   xmlns:rdf="http://www.w3.org/1999/02/22-rdf-syntax-ns#"
   xmlns:svg="http://www.w3.org/2000/svg"
   xmlns="http://www.w3.org/2000/svg"
   xmlns:sodipodi="http://sodipodi.sourceforge.net/DTD/sodipodi-0.dtd"
   xmlns:inkscape="http://www.inkscape.org/namespaces/inkscape"
   version="1.1"
   id="Layer_1"
   x="0px"
   y="0px"
   viewBox="0 0 64 64"
   enable-background="new 0 0 64 64"
   xml:space="preserve"
   sodipodi:docname="compendium-logo.svg"
   inkscape:version="0.92.2 (5c3e80d, 2017-08-06)"><metadata
     id="metadata57"><rdf:RDF><cc:Work
         rdf:about=""><dc:format>image/svg+xml</dc:format><dc:type
           rdf:resource="http://purl.org/dc/dcmitype/StillImage" /><dc:title></dc:title></cc:Work></rdf:RDF></metadata><defs
     id="defs55" /><sodipodi:namedview
     pagecolor="#ffffff"
     bordercolor="#666666"
     borderopacity="1"
     objecttolerance="10"
     gridtolerance="10"
     guidetolerance="10"
     inkscape:pageopacity="0"
     inkscape:pageshadow="2"
     inkscape:window-width="2400"
     inkscape:window-height="1271"
     id="namedview53"
     showgrid="false"
     inkscape:zoom="4.8483609"
     inkscape:cx="7.4042046"
     inkscape:cy="76.809794"
     inkscape:window-x="-9"
     inkscape:window-y="-9"
     inkscape:window-maximized="1"
     inkscape:current-layer="g50"
     showguides="false" /><g
     id="g50"><g
       id="g2128"
       transform="matrix(0.69042101,-0.4320339,0.4320339,0.69042101,-4.3856948,24.958481)"><g
         transform="matrix(1.686291,0,0,-1.686291,-19.95731,85.644628)"
         style="fill:#191c2a;fill-opacity:1"
         id="g12-8-2"><g
           style="fill:#191c2a;fill-opacity:1"
           id="g10-0-0"><path
             inkscape:connector-curvature="0"
             style="fill:#191c2a;fill-opacity:1"
             id="path8-88-0"
             d="m 26,51 h -5 c -2.8,0 -5,-2.2 -5,-5 V 17 h 10 z" /></g></g><g
         transform="matrix(1.686291,0,0,-1.686291,-19.95731,85.644628)"
         style="fill:#191c2a;fill-opacity:1"
         id="g18-6-9"><g
           style="fill:#191c2a;fill-opacity:1"
           id="g16-9-3"><path
             inkscape:connector-curvature="0"
             style="fill:#191c2a;fill-opacity:1"
             id="path14-6-1"
             d="M 46,22 H 20.5 C 18,22 16,20 16,17.5 v 0 C 16,15 18,13 20.5,13 H 45 c 0.6,0 1,0.4 1,1 z" /></g></g><g
         transform="matrix(1.686291,0,0,-1.686291,-19.95731,85.644628)"
         id="g24-3-1"><g
           id="g22-9-9"><path
             style="fill:#f9f7ed"
             inkscape:connector-curvature="0"
             id="path20-8-3"
             d="M 44,20 H 20.5 C 19.1,20 18,18.9 18,17.5 v 0 C 18,16.1 19.1,15 20.5,15 H 44 Z" /></g></g><g
         transform="matrix(1.686291,0,0,-1.686291,-21.47497,85.644628)"
         style="fill:#313a41;fill-opacity:1"
         id="g30-8-9"><g
           style="fill:#313a41;fill-opacity:1"
           id="g28-4-0"><path
             inkscape:connector-curvature="0"
             style="fill:#313a41;fill-opacity:1;stroke-width:0.99099219"
             id="path26-7-0"
             d="M 46.551638,51 H 22 V 20 h 24.551638 c 0.589239,0 0.982065,0.4 0.982065,1 v 29 c 0,0.6 -0.392826,1 -0.982065,1 z" /></g></g><g
         transform="matrix(1.686291,0,0,-1.686291,-19.95731,85.644628)"
         style="fill:#edbd04;fill-opacity:1"
         id="g48-1-2"><g
           style="fill:#edbd04;fill-opacity:1"
           id="g46-31-6"><rect
             style="fill:#edbd04;fill-opacity:1"
             id="rect44-5-0"
             height="31"
             width="2.9000001"
             y="20"
             x="21.1" /></g></g></g></g></svg>